<?xml version="1.0" encoding="utf-8"?>
<!-- Generator: Adobe Illustrator 25.0.0, SVG Export Plug-In . SVG Version: 6.00 Build 0)  -->
<svg version="1.1" xmlns="http://www.w3.org/2000/svg" xmlns:xlink="http://www.w3.org/1999/xlink" x="0px" y="0px"
	 viewBox="0 0 108 108" style="enable-background:new 0 0 108 108;" xml:space="preserve">
<style type="text/css">
	.st0{display:none;}
	.st1{display:inline;fill:#1D1D1B;}
	.st2{display:inline;fill:#FFFFFF;}
	.st3{fill:#FFFFFF;}
</style>
<g id="Camada_1" class="st0">
	<rect class="st1" width="108" height="108"/>
</g>
<g id="Quadrado" class="st0">
	<path class="st2" d="M10,10v88h88V10H10z M88,88H19.84V20H88V88z"/>
</g>
<g id="Triangulo" class="st0">
</g>
<g id="Estrela" class="st0">
	<path class="st2" d="M83.96,44.27l-20.7-3.01L54,22.5l-9.26,18.76l-20.7,3.01l14.98,14.6l-3.54,20.62L54,69.75l18.52,9.73
		l-3.54-20.62L83.96,44.27z M54.23,63.33l-11.41,6.14l2.07-12.79l-9.37-8.96l12.81-1.99l5.62-11.68l5.85,11.57l12.84,1.74
		l-9.19,9.14l2.31,12.75L54.23,63.33z"/>
</g>
<g id="Hex" class="st0">
	<path class="st2" d="M54,10L15.89,32v44L54,98l38.11-22V32L54,10z M83.86,71.9l-30,17.16L24,71.66l0.14-34.56l30-17.16L84,37.34
		L83.86,71.9z"/>
</g>
<g id="Circulo">
	<path class="st3" d="M53.92,9.92C29.58,9.92,9.84,29.66,9.84,54s19.73,44.08,44.08,44.08C78.27,98.08,98,78.34,98,54
		S78.27,9.92,53.92,9.92z M53.92,88.73c-19.18,0-34.73-15.55-34.73-34.73c0-19.18,15.55-34.73,34.73-34.73
		c19.18,0,34.73,15.55,34.73,34.73C88.65,73.18,73.1,88.73,53.92,88.73z"/>
</g>
<g id="X" class="st0">
	<polygon class="st2" points="10,88 44,54 10,20 20,10 54,44 88,10 98,20 64,54 98,88 88,98 54,64 20,98 	"/>
</g>
</svg>
