<?xml version="1.0" encoding="utf-8"?>
<!-- Generator: Adobe Illustrator 25.0.0, SVG Export Plug-In . SVG Version: 6.00 Build 0)  -->
<svg version="1.1" xmlns="http://www.w3.org/2000/svg" xmlns:xlink="http://www.w3.org/1999/xlink" x="0px" y="0px"
	 viewBox="0 0 108 108" style="enable-background:new 0 0 108 108;" xml:space="preserve">
<style type="text/css">
	.st0{display:none;}
	.st1{display:inline;fill:#1D1D1B;}
	.st2{display:inline;fill:#FFFFFF;}
	.st3{display:none;fill:#FFFFFF;}
</style>
<g id="Camada_1" class="st0">
	<rect class="st1" width="108" height="108"/>
</g>
<g id="Quadrado" class="st0">
	<path class="st2" d="M10,10v88h88V10H10z M88,88H19.84V20H88V88z"/>
</g>
<g id="Triangulo" class="st0">
	<polygon class="st2" points="10,98 53.92,10 98,98 	"/>
</g>
<g id="Circulo">
	<path class="st3" d="M53.92,9.92C29.58,9.92,9.84,29.66,9.84,54s19.73,44.08,44.08,44.08C78.27,98.08,98,78.34,98,54
		S78.27,9.92,53.92,9.92z M53.92,88.73c-19.18,0-34.73-15.55-34.73-34.73c0-19.18,15.55-34.73,34.73-34.73
		c19.18,0,34.73,15.55,34.73,34.73C88.65,73.18,73.1,88.73,53.92,88.73z"/>
</g>
<g id="X" class="st0">
</g>
</svg>
